<svg width="576" height="154" viewBox="0 0 576 154" fill="none" xmlns="http://www.w3.org/2000/svg">
<path d="M383.756 1.55811C371.1 -4.3741 352.492 7.04909 335.9 28.7433C333.325 -14.0568 299.827 -4.52118 275.17 28.7433C274.514 15.2365 270.239 5.28413 262.295 1.55811C244.246 -6.89897 214.075 19.9431 194.909 61.5666C161.895 131.135 186.576 191.953 240.772 125.056C243.347 167.856 276.846 158.321 301.503 125.056C302.159 138.563 306.434 148.515 314.378 152.241C358.978 169.474 425.563 24.8212 383.756 1.58263V1.55811Z" fill="#C9B9FF"/>
<path d="M562.756 1.55811C550.1 -4.3741 531.492 7.04909 514.9 28.7433C512.325 -14.0568 478.827 -4.52118 454.17 28.7433C453.514 15.2365 449.239 5.28413 441.295 1.55811C423.246 -6.89897 393.075 19.9431 373.909 61.5666C340.895 131.135 365.576 191.953 419.772 125.056C422.347 167.856 455.846 158.321 480.503 125.056C481.159 138.563 485.434 148.515 493.378 152.241C537.978 169.474 604.563 24.8212 562.756 1.58263V1.55811Z" fill="#C9B9FF"/>
<path d="M204.695 1.55811C191.98 -4.3741 173.287 7.04909 156.619 28.7433C154.032 -14.0568 120.379 -4.52118 95.6085 28.7433C94.9496 15.2365 90.6544 5.28413 82.6743 1.55811C64.542 -6.89897 34.2321 19.9431 14.9772 61.5666C-18.188 131.135 6.60661 191.953 61.0522 125.056C63.6391 167.856 97.2924 158.321 122.063 125.056C122.721 138.563 127.017 148.515 134.997 152.241C179.803 169.474 246.695 24.8212 204.695 1.58263V1.55811Z" fill="#C9B9FF"/>
<path d="M169.048 93.432C165.848 93.432 162.968 92.712 160.408 91.272C157.848 89.832 155.848 87.832 154.408 85.272C152.968 82.712 152.248 79.816 152.248 76.584C152.248 73.384 152.968 70.52 154.408 67.992C155.88 65.464 157.896 63.496 160.456 62.088C163.048 60.648 165.992 59.928 169.288 59.928C173.224 59.928 176.552 60.952 179.272 63C182.024 65.048 183.864 67.848 184.792 71.4H177.88C177.112 69.8 175.96 68.536 174.424 67.608C172.92 66.68 171.128 66.216 169.048 66.216C167.128 66.216 165.384 66.664 163.816 67.56C162.28 68.456 161.08 69.704 160.216 71.304C159.352 72.872 158.92 74.664 158.92 76.68C158.92 78.696 159.352 80.504 160.216 82.104C161.08 83.704 162.28 84.952 163.816 85.848C165.384 86.744 167.16 87.192 169.144 87.192C171.608 87.192 173.608 86.616 175.144 85.464C176.712 84.312 177.736 82.712 178.216 80.664H168.664V75.432H185.224V77.208C185.224 80.344 184.568 83.144 183.256 85.608C181.944 88.04 180.056 89.96 177.592 91.368C175.16 92.744 172.312 93.432 169.048 93.432ZM188.647 69.672H194.695V73.272C195.239 72.024 196.023 71.08 197.047 70.44C198.071 69.768 199.383 69.368 200.983 69.24V75.576C199.031 75.48 197.575 75.928 196.615 76.92C195.655 77.88 195.175 79.416 195.175 81.528V93H188.647V69.672ZM204.537 69.672H211.113V93H204.537V69.672ZM204.009 63.24C204.009 62.184 204.361 61.32 205.065 60.648C205.769 59.976 206.681 59.64 207.801 59.64C208.921 59.64 209.833 59.976 210.537 60.648C211.241 61.32 211.593 62.184 211.593 63.24C211.593 64.296 211.225 65.176 210.489 65.88C209.785 66.552 208.889 66.888 207.801 66.888C206.713 66.888 205.801 66.552 205.065 65.88C204.361 65.176 204.009 64.296 204.009 63.24ZM230.19 93.384C228.334 93.384 226.686 93 225.246 92.232C223.838 91.464 222.702 90.36 221.838 88.92V93H215.79V59.4H222.318V73.08C223.214 71.832 224.318 70.888 225.63 70.248C226.974 69.576 228.494 69.24 230.19 69.24C232.27 69.24 234.126 69.752 235.758 70.776C237.39 71.8 238.654 73.24 239.55 75.096C240.478 76.92 240.942 79 240.942 81.336C240.942 83.672 240.478 85.752 239.55 87.576C238.654 89.4 237.39 90.824 235.758 91.848C234.126 92.872 232.27 93.384 230.19 93.384ZM222.366 81.288C222.366 83.208 222.942 84.792 224.094 86.04C225.278 87.256 226.766 87.864 228.558 87.864C230.35 87.864 231.806 87.256 232.926 86.04C234.046 84.792 234.606 83.208 234.606 81.288C234.606 79.4 234.03 77.848 232.878 76.632C231.758 75.416 230.318 74.808 228.558 74.808C226.766 74.808 225.278 75.416 224.094 76.632C222.942 77.848 222.366 79.4 222.366 81.288ZM256.322 93.432C253.922 93.432 251.762 92.92 249.842 91.896C247.954 90.872 246.482 89.448 245.426 87.624C244.37 85.768 243.842 83.672 243.842 81.336C243.842 79 244.37 76.92 245.426 75.096C246.482 73.24 247.954 71.8 249.842 70.776C251.762 69.752 253.922 69.24 256.322 69.24C258.722 69.24 260.866 69.752 262.754 70.776C264.674 71.8 266.162 73.24 267.218 75.096C268.274 76.92 268.802 79 268.802 81.336C268.802 83.672 268.274 85.768 267.218 87.624C266.162 89.448 264.674 90.872 262.754 91.896C260.866 92.92 258.722 93.432 256.322 93.432ZM250.082 81.288C250.082 83.176 250.658 84.728 251.81 85.944C252.994 87.128 254.498 87.72 256.322 87.72C258.146 87.72 259.634 87.128 260.786 85.944C261.97 84.728 262.562 83.176 262.562 81.288C262.562 79.432 261.97 77.912 260.786 76.728C259.634 75.544 258.146 74.952 256.322 74.952C254.498 74.952 252.994 75.544 251.81 76.728C250.658 77.912 250.082 79.432 250.082 81.288ZM282.352 93.432C279.248 93.432 276.768 92.568 274.912 90.84C273.056 89.112 272.128 86.808 272.128 83.928V69.672H278.656V83.544C278.656 84.888 278.976 85.928 279.616 86.664C280.256 87.4 281.168 87.768 282.352 87.768C283.536 87.768 284.448 87.4 285.088 86.664C285.728 85.928 286.048 84.888 286.048 83.544V69.672H292.624V83.928C292.624 86.776 291.68 89.08 289.792 90.84C287.936 92.568 285.456 93.432 282.352 93.432ZM296.928 69.672H303.504V93H296.928V69.672ZM296.4 63.24C296.4 62.184 296.752 61.32 297.456 60.648C298.16 59.976 299.072 59.64 300.192 59.64C301.312 59.64 302.224 59.976 302.928 60.648C303.632 61.32 303.984 62.184 303.984 63.24C303.984 64.296 303.616 65.176 302.88 65.88C302.176 66.552 301.28 66.888 300.192 66.888C299.104 66.888 298.192 66.552 297.456 65.88C296.752 65.176 296.4 64.296 296.4 63.24ZM308.18 59.4H314.708V93H308.18V59.4ZM319.43 59.4H325.958V93H319.43V59.4ZM337.692 93.288C335.26 93.288 333.276 92.568 331.74 91.128C330.236 89.688 329.484 87.832 329.484 85.56C329.484 83.224 330.22 81.336 331.692 79.896C333.196 78.456 335.132 77.736 337.5 77.736C338.78 77.736 339.932 77.96 340.956 78.408C341.98 78.824 342.812 79.448 343.452 80.28V77.4C343.452 76.28 343.18 75.416 342.636 74.808C342.124 74.168 341.372 73.848 340.38 73.848C339.516 73.848 338.78 74.056 338.172 74.472C337.596 74.856 337.196 75.384 336.972 76.056H330.732C331.276 73.912 332.428 72.248 334.188 71.064C335.948 69.848 338.108 69.24 340.668 69.24C343.676 69.24 345.98 70.04 347.58 71.64C349.212 73.208 350.028 75.4 350.028 78.216V93H343.836V90.264C343.292 91.224 342.476 91.976 341.388 92.52C340.332 93.032 339.1 93.288 337.692 93.288ZM335.916 85.416C335.916 86.504 336.268 87.4 336.972 88.104C337.676 88.776 338.604 89.112 339.756 89.112C340.588 89.112 341.324 88.936 341.964 88.584C342.636 88.2 343.132 87.656 343.452 86.952V84.072C343.1 83.336 342.588 82.776 341.916 82.392C341.244 81.976 340.476 81.768 339.612 81.768C338.524 81.768 337.628 82.104 336.924 82.776C336.252 83.448 335.916 84.328 335.916 85.416ZM367.164 101.88C364.092 101.88 361.564 101.192 359.58 99.816C357.596 98.472 356.444 96.632 356.124 94.296H362.316C362.508 95.128 363.004 95.784 363.804 96.264C364.636 96.776 365.628 97.032 366.78 97.032C369.82 97.032 371.34 95.336 371.34 91.944V88.488C369.868 91.112 367.468 92.424 364.14 92.424C362.06 92.424 360.188 91.928 358.523 90.936C356.891 89.944 355.612 88.568 354.684 86.808C353.788 85.048 353.34 83.048 353.34 80.808C353.34 78.568 353.788 76.584 354.684 74.856C355.612 73.096 356.891 71.72 358.523 70.728C360.188 69.736 362.06 69.24 364.14 69.24C365.74 69.24 367.212 69.608 368.556 70.344C369.932 71.048 371.02 72.008 371.82 73.224V69.672H377.916V91.224C377.916 94.552 376.956 97.16 375.036 99.048C373.148 100.936 370.524 101.88 367.164 101.88ZM359.532 80.76C359.532 82.616 360.076 84.136 361.164 85.32C362.252 86.472 363.66 87.048 365.388 87.048C367.116 87.048 368.54 86.472 369.66 85.32C370.78 84.136 371.34 82.616 371.34 80.76C371.34 78.968 370.78 77.496 369.66 76.344C368.54 75.16 367.116 74.568 365.388 74.568C363.66 74.568 362.252 75.144 361.164 76.296C360.076 77.448 359.532 78.936 359.532 80.76ZM393.756 93.432C391.324 93.432 389.18 92.92 387.324 91.896C385.468 90.872 384.012 89.448 382.956 87.624C381.932 85.8 381.42 83.72 381.42 81.384C381.42 79.08 381.948 77 383.004 75.144C384.06 73.288 385.516 71.848 387.372 70.824C389.228 69.768 391.324 69.24 393.66 69.24C396.124 69.24 398.236 69.784 399.996 70.872C401.788 71.96 403.132 73.448 404.028 75.336C404.956 77.224 405.42 79.368 405.42 81.768H387.42C387.484 83.752 388.124 85.352 389.34 86.568C390.556 87.752 392.124 88.344 394.044 88.344C395.26 88.344 396.316 88.072 397.212 87.528C398.108 86.952 398.764 86.168 399.18 85.176H405.132C404.428 87.704 403.1 89.72 401.148 91.224C399.228 92.696 396.764 93.432 393.756 93.432ZM399.228 78.072C398.812 76.824 398.124 75.848 397.164 75.144C396.236 74.44 395.1 74.088 393.756 74.088C392.476 74.088 391.324 74.44 390.3 75.144C389.308 75.848 388.556 76.824 388.044 78.072H399.228ZM417.504 93.432C414.464 93.432 412.128 92.744 410.496 91.368C408.864 89.992 407.968 88.04 407.808 85.512H413.808C413.872 86.472 414.192 87.24 414.768 87.816C415.376 88.36 416.176 88.632 417.168 88.632C417.936 88.632 418.544 88.424 418.992 88.008C419.472 87.592 419.712 87.048 419.712 86.376C419.712 85.768 419.536 85.272 419.184 84.888C418.832 84.504 418.272 84.168 417.504 83.88L414.144 82.68C410.688 81.496 408.96 79.336 408.96 76.2C408.96 74.152 409.728 72.488 411.264 71.208C412.8 69.896 414.832 69.24 417.36 69.24C420.112 69.24 422.256 69.896 423.792 71.208C425.328 72.488 426.208 74.28 426.432 76.584H420.528C420.464 75.72 420.176 75.064 419.664 74.616C419.152 74.136 418.448 73.896 417.552 73.896C416.784 73.896 416.176 74.088 415.728 74.472C415.28 74.856 415.056 75.352 415.056 75.96C415.056 76.568 415.28 77.064 415.728 77.448C416.208 77.832 417.056 78.248 418.272 78.696L420.576 79.608C422.4 80.248 423.728 81.096 424.56 82.152C425.392 83.208 425.808 84.552 425.808 86.184C425.808 88.36 425.056 90.12 423.552 91.464C422.048 92.776 420.032 93.432 417.504 93.432Z" fill="black"/>
</svg>
