<svg width="87" height="87" viewBox="0 0 87 87" fill="none" xmlns="http://www.w3.org/2000/svg">
<path d="M86.62 43.31C86.62 37.79 82.14 33.31 76.62 33.31H67.45L73.94 26.82C77.85 22.91 77.85 16.58 73.94 12.68C70.03 8.78 63.7 8.77 59.8 12.68L53.31 19.17V10C53.31 4.48 48.83 0 43.31 0C37.79 0 33.31 4.48 33.31 10V19.17L26.82 12.68C22.91 8.77 16.58 8.77 12.68 12.68C8.78 16.59 8.77 22.92 12.68 26.82L19.17 33.31H10C4.48 33.31 0 37.79 0 43.31C0 48.83 4.48 53.31 10 53.31H19.17L12.68 59.8C8.77 63.71 8.77 70.04 12.68 73.94C16.59 77.85 22.92 77.85 26.82 73.94L33.31 67.45V76.62C33.31 82.14 37.79 86.62 43.31 86.62C48.83 86.62 53.31 82.14 53.31 76.62V67.45L59.8 73.94C63.71 77.85 70.04 77.85 73.94 73.94C77.85 70.03 77.85 63.7 73.94 59.8L67.45 53.31H76.62C82.14 53.31 86.62 48.83 86.62 43.31Z" fill="#5751FF"/>
</svg>
