<svg width="112" height="113" viewBox="0 0 112 113" fill="none" xmlns="http://www.w3.org/2000/svg">
<path d="M110.456 52.6954C112.113 58.5307 112.365 64.3583 110.911 70.2523C110.702 71.09 110.527 71.9996 110.097 72.7152C107.104 77.6713 104.115 82.7711 99.2362 86.0244C93.8795 89.6038 87.7356 90.8893 81.2469 90.3177C72.5753 89.5605 65.3088 91.9242 59.6874 99.0992C54.9634 105.123 48.7639 109.102 41.1975 111.154C33.7515 113.177 26.9777 112.419 20.562 108.251C15.9322 105.248 12.7863 100.95 10.6606 95.9363C7.00697 87.366 8.20861 78.8221 10.8947 70.2823C11.9706 66.8725 13.5124 63.4765 13.8295 59.9643C14.46 52.8606 12.5673 46.3931 7.72982 40.7938C4.39115 36.9445 1.81685 32.5061 0.642225 27.4027C-1.17899 19.4091 0.909263 12.4606 6.4483 6.63784C11.961 0.837589 18.7188 -0.999969 26.5994 0.497297C35.8134 2.22847 43.7475 6.34445 50.831 12.4508C56.4933 17.3177 63.5105 18.4174 70.554 18.0663C80.2284 17.582 88.3227 20.7278 95.0738 27.4936C98.1663 30.601 101.127 33.8853 103.775 37.3909C105.52 39.69 106.723 42.4434 107.889 45.1097C108.95 47.5449 109.609 50.1593 110.456 52.6954Z" fill="#F06120"/>
</svg>
